<svg width="1060" height="960" viewBox="0 0 1060 960" fill="none" xmlns="http://www.w3.org/2000/svg">
<path d="M1056.85 713.7H21.0469C19.6662 713.7 18.5469 714.819 18.5469 716.2V724.4C18.5469 725.781 19.6662 726.9 21.0469 726.9H1056.85C1058.23 726.9 1059.35 725.781 1059.35 724.4V716.2C1059.35 714.819 1058.23 713.7 1056.85 713.7Z" fill="#AE9C6E"/>
<path d="M316.247 98.8C315.347 108.1 310.547 119.8 308.647 129.4C300.547 170.8 301.747 211.6 321.047 249.6C341.547 290 378.747 322.9 422.547 335.4C421.347 374.7 423.247 405.8 454.347 432.7C485.447 459.6 526.547 474.8 565.247 487C566.447 485.4 562.547 466.2 562.247 462.4C556.747 396.3 576.847 317.8 626.447 271.6C634.247 264.4 643.447 258.9 651.547 252H635.947C631.747 252 615.247 246.7 611.847 244C601.447 235.8 609.747 219.8 619.547 214.5C625.847 211.1 645.347 208 650.147 213.8C658.047 223.3 638.247 221.8 635.747 226.7C626.747 243.8 652.247 242.8 662.047 241.9C680.747 240.1 701.947 231.5 722.447 230C770.747 226.4 850.747 254.5 869.047 303.3C872.847 313.6 874.247 325.2 879.547 334.9C889.247 352.7 915.947 363.7 911.747 387.6C905.247 387.6 900.347 381.6 893.747 381C887.547 380.4 893.747 384.6 895.147 386.6C908.447 406.8 891.947 427.3 869.347 420.4C861.147 417.9 853.447 408.9 844.847 407.7C841.447 407.2 831.047 407.7 829.347 411.1C828.247 413.3 836.547 413.4 837.347 415.2C843.047 420.1 848.847 429.3 856.447 431.2C869.947 434.6 890.647 421.2 881.047 447.7C875.747 462.4 863.347 471.3 847.447 469.8C849.147 465 854.547 461.8 854.547 456.3C854.547 454.8 854.747 454.5 853.047 454.8C849.047 455.4 841.047 460.2 835.647 461.5C830.247 462.8 819.247 464.5 817.347 463.3C815.447 462.1 816.547 461.9 816.847 460.8C818.047 457.2 820.747 453.4 821.247 449.1C830.547 378.6 720.947 375.7 681.247 416.5C656.747 441.6 642.247 493.2 671.247 520C673.747 522.3 689.947 532.6 691.847 531.1C693.747 529.5 690.447 528.9 689.847 528.6C650.847 505.6 667.847 452.2 696.947 428.3C720.047 409.3 758.747 402.5 785.147 418.2C814.247 435.5 804.847 484.3 773.147 491.9C775.947 474.3 765.847 463.6 750.047 458.3C734.447 453 701.247 456.8 695.147 474.7C687.647 496.5 720.647 506.7 736.547 508C782.447 511.7 817.847 476.8 857.047 476.9C893.947 476.9 869.547 527.3 851.847 535C845.147 537.9 844.747 534.7 839.647 533.4C805.647 524.7 737.447 561.7 703.847 574.8C642.947 598.5 594.447 606.2 532.247 580.8C475.547 557.7 425.947 518.5 364.747 506.3C282.447 489.9 214.847 521.1 158.047 578.6C128.347 608.7 99.0469 654 57.2469 668.1C3.94686 686.1 -9.95314 642.4 6.54686 599.4C22.5469 557.6 53.2469 530.7 80.8469 498C133.547 435.6 104.747 392.6 39.8469 362.3C36.4469 360.7 16.5469 353.6 16.1469 351.8L38.1469 317.7C56.4469 321.8 76.8469 331.9 91.8469 343.4C152.247 389.6 143.047 441.2 99.3469 495.5C79.6469 520.1 35.1469 559 29.5469 589.4C24.4469 617 40.9469 631.8 67.7469 629.6C107.347 626.5 139.847 578.9 165.147 552.2C250.847 461.9 335.147 440.4 450.047 497.3C511.247 527.6 572.947 570.1 645.247 565.3C647.847 565.1 656.947 564.6 656.647 561.9C641.747 536.3 632.247 506.2 630.647 476.4C626.847 404.2 677.047 349.8 748.647 344.4C757.547 343.7 766.747 345.5 775.647 343.4C778.447 339.5 771.247 338.5 768.247 337.9C739.247 331.3 701.347 335.4 674.947 349.1C610.447 382.4 603.547 457.9 620.647 521.6C622.847 529.8 627.347 537.7 627.647 546.3C624.047 544.3 622.247 540.6 620.247 537.1C543.447 403.3 635.647 262.1 790.347 297.7C794.147 298.6 816.447 306.2 817.447 305.2C817.647 302.8 817.347 300.4 815.347 298.8C812.547 296.5 800.947 290.7 797.047 289C753.947 270 700.747 271.6 658.747 292.7C576.047 334.3 557.147 444.4 594.847 523.4L611.647 552.3C568.047 543.6 525.347 524.5 487.847 500.9C447.947 475.7 421.947 454.3 416.847 404.2C416.447 400.4 417.547 396.4 416.347 392.6C372.847 373.7 329.747 343.9 309.547 299.6C282.247 239.7 290.347 153.1 311.747 92.2C312.847 89.2 313.947 84.4 316.447 82.4C316.047 87.7 316.947 93.7 316.447 99L316.247 98.8ZM869.547 355.3C861.847 333.7 855.847 308.2 826.347 319.2C825.747 321.5 826.847 320.8 827.647 321.5C830.147 323.5 833.947 324.9 836.347 326.8C847.647 335.6 853.247 353.2 869.547 355.3Z" fill="#AE9C6E"/>
<path d="M1059.35 646.6L1029.75 682.8C979.847 659 927.547 636.9 872.747 626.8C833.447 619.6 797.347 618.4 757.747 624.6C669.547 638.5 600.747 681.8 506.747 670.5C441.147 662.7 393.047 622.4 330.347 605.9C296.947 597.1 260.947 594 226.447 597.4C216.247 598.4 206.047 601.5 195.847 601.9C217.347 589.9 240.647 577.6 264.747 571.3C380.047 541.2 456.747 648.1 566.847 653.6C664.047 658.4 737.647 591.5 830.947 586.3C911.347 581.8 990.747 606.7 1059.35 646.6Z" fill="#AE9C6E"/>
<path d="M838.147 546.4C839.047 547.1 839.847 549.3 841.447 550.6C851.747 559.2 864.047 565.7 872.647 576.2C844.447 567.7 814.647 571.3 786.447 577.9C695.247 599.3 631.147 662.4 530.047 633.2C440.847 607.4 373.747 528.7 271.947 553.4C243.447 560.3 215.947 575.5 190.147 589.1L138.647 623.4C162.347 593.7 193.447 566 226.747 547.3C284.147 515.1 336.347 511.6 398.547 532.8C477.547 559.7 525.847 616.9 617.147 611.4C689.547 607 741.047 567.9 806.647 549.9C812.647 548.2 833.847 542.9 838.247 546.5L838.147 546.4Z" fill="#AE9C6E"/>
<path d="M475.247 309.8C487.247 323.4 510.747 337 529.347 331C536.847 328.6 544.147 321.6 545.047 313.6C545.247 311.6 545.547 308.8 545.047 306.9C543.247 301.1 506.547 290.6 499.347 287.3C491.447 283.7 491.047 279 489.247 271.2C487.547 263.5 483.647 241.3 485.147 234.6C486.247 229.8 488.547 229.7 492.447 230.8C524.947 240 534.147 259.4 575.447 252.7C579.447 252.1 586.247 249.1 588.847 249C594.047 248.6 592.247 253.4 589.847 256.1C584.347 262.1 555.647 270.8 555.147 272.6C568.347 292.1 578.147 317.8 573.947 341.6C567.747 376.8 537.147 393.4 503.947 380C470.547 366.6 453.547 329.4 448.847 295.5C445.847 273.8 450.447 261.1 430.947 246.1C401.747 223.7 366.647 218.9 359.447 175C352.247 130.8 388.247 54.9 406.047 13C406.947 10.8 411.647 0 413.047 0C416.947 4.6 415.747 11.9 414.247 17.3C402.947 58.8 351.847 134.8 395.447 171.2C408.147 181.8 443.247 197.5 450.547 209.5C453.747 214.7 455.647 226.4 455.747 232.5C456.147 264.4 451.747 283.4 475.147 309.9L475.247 309.8Z" fill="#AE9C6E"/>
<path d="M573.347 691.7C573.547 693.2 570.747 693.5 569.747 693.6C524.447 698.3 486.947 696.1 443.647 682.4C395.947 667.3 355.547 647.4 303.747 644.5C246.047 641.3 186.347 661.1 137.047 689.6L95.3469 663C133.247 628.8 189.147 612.9 239.447 609.3C321.947 603.3 369.047 641.2 440.747 669C483.547 685.6 527.047 694.6 573.247 691.6L573.347 691.7Z" fill="#AE9C6E"/>
<path d="M608.447 687.7L622.947 681.7C688.647 659.9 756.247 633.4 826.847 636.5C880.647 638.9 941.447 657 989.647 680.5C991.147 681.2 999.847 685.6 1000.05 686.2C1000.35 687.6 999.247 687.9 998.347 688.5C987.647 696.3 976.847 703.8 966.347 711.8C931.247 696.3 894.547 684.4 856.647 677.9C773.447 663.7 690.847 674.1 608.447 687.6V687.7Z" fill="#AE9C6E"/>
<path d="M398.647 455.8C329.447 432.8 283.047 372.5 268.647 302.2C259.247 256.6 262.447 201.6 274.847 156.8C275.447 154.5 275.747 150.7 278.147 149.6C279.747 170.8 273.047 191.2 272.047 212.3C268.647 283.9 300.147 357.2 364.847 391.8C375.747 397.6 387.347 401.4 398.647 406.2V455.9V455.8Z" fill="#AE9C6E"/>
<path d="M366.047 230.2C383.347 247.2 396.447 250.7 416.347 261.7C433.047 271 431.547 300.5 431.747 317.1C381.447 300.9 338.947 263.4 328.647 209.9C317.347 151.2 344.547 70.7 376.347 21.2C377.147 19.9 377.947 18.3 379.547 17.9C378.847 22.7 379.147 29.2 377.847 33.8C376.447 38.7 369.747 48.1 367.247 53.4C341.247 108.3 316.147 181.1 366.047 230.2Z" fill="#AE9C6E"/>
<path d="M440.847 705.8C373.447 682.3 294.447 678.5 229.647 711.7L195.847 684.8C206.447 680 216.947 674.9 228.147 671.4C294.147 650.9 364.847 665 424.947 696.1C430.247 698.9 436.347 701.8 440.847 705.8Z" fill="#AE9C6E"/>
<path d="M551.247 410.6C549.647 426.3 545.947 442.1 550.247 457.7C547.847 459.8 517.447 450.4 512.547 448.7C466.247 432 434.147 400.1 437.747 347.7C441.347 295.3 439.047 334.9 440.747 336.2C452.947 375.3 490.447 401.7 529.847 408.2C536.947 409.4 544.047 409.3 551.147 410.5L551.247 410.6Z" fill="#AE9C6E"/>
<path d="M122.447 503C126.647 507 96.9469 535.2 93.8469 539.1C85.9469 548.8 73.6469 564.6 81.8469 577.2C90.5469 590.6 94.2469 573.9 97.0469 573.2C101.947 572 104.447 576.4 104.447 580.8C104.447 589.3 94.1469 600.9 86.6469 604.3C74.3469 609.9 62.4469 601.9 61.1469 588.8C58.2469 558.8 95.0469 525.1 115.847 506.9C116.847 506 121.047 501.7 122.347 502.9L122.447 503Z" fill="#AE9C6E"/>
<path d="M501.947 768.7C506.347 771.5 496.547 786.7 493.047 789C489.947 791.1 482.647 792.3 478.447 794.3C452.747 806.6 428.247 823.3 401.847 834.5C379.747 871.2 384.947 922.4 439.347 912C471.247 905.9 490.847 878.9 494.947 847.8C496.547 835.7 494.747 823.2 496.047 812C497.547 799.5 512.247 811 518.847 799.9C519.947 798 521.847 786.2 525.547 791.5C528.647 795.9 519.547 817.2 514.547 820.5C512.347 822 507.847 822.2 507.147 824.1C504.247 859.7 496.047 895.8 469.947 921.7C431.747 959.6 375.947 948.7 380.247 886.9C381.447 870 387.347 854.1 393.247 838.5C355.347 854.6 309.047 868.1 267.647 858.8C257.347 856.5 248.347 852.2 241.047 844.5L234.447 865.8C231.947 871.5 224.447 884.3 218.047 885.3C212.947 886.1 207.547 885.4 203.647 881.9C196.147 875.1 202.347 870 204.247 862.4C208.247 846.1 205.947 828.8 207.947 812.2C209.247 801.6 214.647 791.2 218.647 781.5C220.347 781.2 219.747 783.9 219.647 785C219.047 794.2 217.247 803.7 216.647 812.9C215.547 828.5 217.447 843.3 211.447 858.6C209.747 862.8 206.047 866.9 204.947 870C203.847 873.1 211.847 871.4 213.747 870.8C241.647 861.7 234.247 819.8 236.847 797.1C237.747 789.3 243.047 781.2 244.747 773.5C246.647 774 246.547 775.1 246.547 776.7C245.647 797.2 238.147 816.1 261.747 826.9C306.047 847.1 382.547 822.6 424.747 803.3C443.847 794.6 462.647 782.8 481.647 774.3C485.547 772.6 498.747 766.5 502.147 768.6L501.947 768.7Z" fill="#049F99"/>
<path d="M163.947 827.2C166.847 830.9 175.447 831.8 179.647 834.9C190.347 842.9 186.547 862.7 183.747 874C178.447 895 162.947 920.1 143.747 930.8C122.547 942.6 99.6469 941.7 89.8469 916.8C75.7469 881 97.5469 832.2 117.847 802.5L120.647 804.8C111.447 828.4 82.9469 872.1 101.347 896.4C117.747 918 153.647 905.6 168.747 887.9C193.047 859.4 156.047 866.7 150.247 849.5C145.347 834.7 157.547 808.8 166.347 796.6C168.647 793.5 182.447 779.2 182.747 778C183.447 774.9 176.347 776.4 176.847 770.2C177.147 766.8 184.847 750 187.347 747.7C192.347 743.1 213.547 748 214.647 754.1C218.447 773.7 187.647 788.6 175.747 800C170.247 805.3 158.047 819.5 164.047 827.2H163.947Z" fill="#049F99"/>
<path d="M701.747 781.6C700.247 792.6 700.647 803.9 700.747 815.1C701.047 851.3 699.347 875.9 677.647 906.7C661.047 930.2 623.047 954.8 595.647 934.2C566.447 912.2 580.447 853.3 597.047 826.7H599.947C601.847 828.4 592.747 848.5 591.647 852.7C582.847 886.6 592.547 914.4 632.247 910.3C654.347 908 677.047 888.8 685.547 868.7C697.947 839.5 680.347 816.2 698.747 784.1C699.547 782.7 699.547 781.2 701.747 781.6Z" fill="#049F99"/>
<path d="M711.747 868.4L713.147 876.4C716.047 882.7 721.647 885.6 727.847 887.6C760.247 898.1 851.947 891.7 874.347 862.9C876.247 860.5 876.647 857 879.347 855.4C877.747 868.6 872.747 882 862.447 890.8C837.747 911.9 769.447 920.7 738.147 917.2C706.647 913.7 703.447 896.1 711.647 868.3L711.747 868.4Z" fill="#049F99"/>
<path d="M837.447 775.6C837.447 784.7 828.447 792 830.647 801.8C832.247 808.7 845.447 811 845.447 817C845.447 820.3 836.347 836.6 833.347 838C828.147 840.4 820.747 829.1 809.147 833.7C804.247 835.6 802.347 840.9 798.947 844.5C794.147 849.5 786.847 857.7 780.447 859.9C763.047 866.1 751.447 854.1 750.047 837.5C744.747 844.8 739.047 859.9 728.947 861.4C725.847 861.9 722.847 861.1 719.447 861.9C716.847 862.5 703.347 870.1 701.547 868.5C701.147 866.6 702.447 866.1 703.647 865.1C724.247 847.2 739.447 843.4 752.347 816C754.247 811.9 761.647 790.9 763.147 789.6C763.347 789.4 765.147 788.5 765.547 789.1C768.347 791 762.947 804.1 762.547 808.1C761.547 818.5 763.047 829.1 774.747 831.9C795.347 836.9 801.247 821.3 813.447 810.1C815.147 808.6 817.947 807.9 818.947 806.6C820.247 804.8 822.447 795.6 824.247 792C825.947 788.7 830.147 782 832.447 779.2C833.047 778.5 836.547 774.6 837.447 775.7V775.6Z" fill="#049F99"/>
<path d="M982.247 812.5C979.847 823.4 969.147 828.3 961.747 836.4C956.147 842.5 951.747 850.9 945.847 856.4C937.247 864.4 924.647 866 917.347 875.8C910.847 884.7 908.247 899.4 898.847 906.2C889.847 912.8 874.747 909.9 864.447 915.2C864.047 913.3 865.447 912.8 866.547 911.8C878.247 901.2 893.947 893.6 903.847 881.3C910.847 872.6 914.047 859.6 922.647 851.7C930.947 844.1 943.147 842.3 951.847 834C953.447 832.5 960.247 825 959.147 823.4C949.447 820.1 938.947 811.8 928.547 817.2L921.247 823.4C921.947 817.6 926.847 810.7 931.247 806.9C949.347 791.2 962.847 815.6 982.147 812.4L982.247 812.5Z" fill="#049F99"/>
<path d="M541.647 895C535.147 904.2 532.147 901.4 523.047 903.8C515.847 905.7 509.447 910.6 502.147 911.3C514.247 898 533.747 892 543.047 875.9C541.847 874 541.447 874.8 540.047 874.9C536.847 875 534.347 875.9 530.747 875.2C524.347 873.9 518.447 867 520.247 860.2C520.647 858.8 529.547 840.8 530.547 839.5C541.047 825.8 553.147 841.8 553.947 853.4C565.047 849.2 562.047 839 562.947 830C564.047 818.7 570.747 810 577.847 801.5C575.047 822 575.147 841.5 563.247 859.3C560.147 864 554.247 868.1 552.047 872C548.247 878.5 546.547 887.9 541.547 894.9L541.647 895Z" fill="#049F99"/>
<path d="M442.747 828.5C443.647 828.3 457.847 837.6 458.647 839.5C461.847 847 451.347 859.3 445.747 863.4C442.747 861.9 428.247 854.5 428.247 852L442.847 828.5H442.747Z" fill="#049F99"/>
<path d="M624.847 848.4L639.447 823.5C640.847 823.1 654.447 831.6 655.247 833.4C658.947 841.5 648.547 852.9 643.147 858.2L624.847 848.3V848.4Z" fill="#049F99"/>
<path d="M341.347 935.3C340.747 934.6 344.047 920.5 344.347 917.8C345.947 902.9 343.047 886 349.947 872.5C352.147 868.2 355.947 864.9 357.847 860.4C360.747 861.6 357.547 869.6 357.347 871.9C355.847 892.3 358.047 908.5 347.847 927.3C337.647 946.1 342.847 936.9 341.347 935.3Z" fill="#049F99"/>
<path d="M543.247 770.4C542.647 769.3 543.047 767.7 543.647 766.6L557.647 746.6C562.847 750.9 574.447 754.5 572.647 762.6C570.847 770.7 563.047 778.6 560.347 779.4C558.247 780 543.747 771.2 543.247 770.4Z" fill="#049F99"/>
<path d="M874.547 800.4C873.047 797.9 886.947 780.1 888.847 776.6C889.747 776.6 902.147 785.5 903.147 787.2C907.147 794.7 896.047 805.7 890.747 810.3L874.547 800.3V800.4Z" fill="#049F99"/>
<path d="M788.347 959C784.847 961.1 773.847 949.8 769.547 949.2L784.047 926.2C787.947 928 798.647 933.6 799.447 937.8C801.247 946.9 792.247 952.3 788.347 959Z" fill="#049F99"/>
<path d="M795.847 753C801.247 758.7 797.747 764 793.647 769.5C792.747 770.7 787.147 776.7 786.247 777.1C782.747 778.7 772.947 769.7 769.347 768L783.447 745.7C784.847 744.9 794.547 751.4 795.947 752.9L795.847 753Z" fill="#049F99"/>
<path d="M517.747 933.6C520.947 937.2 519.847 940.8 517.947 944.7C516.447 947.8 508.047 959 504.847 958.2L491.347 949.2L491.647 945.4L505.547 925.4C508.047 929.3 515.247 930.9 517.747 933.7V933.6Z" fill="#049F99"/>
<path d="M537.547 921.4C546.647 928.9 556.847 930.8 547.447 944.2C545.147 947.5 540.847 949.8 539.047 953.8L537.547 954.3L522.147 943.7L537.547 921.5V921.4Z" fill="#049F99"/>
<path d="M815.847 742.8C817.947 742.3 826.547 748.4 828.147 750.1C835.247 757.8 822.047 769.6 816.447 774.5L801.147 764.1C803.347 761 813.647 743.4 815.747 742.8H815.847Z" fill="#049F99"/>
<path d="M731.247 788.1C726.447 793.3 719.847 798.1 714.247 802.5L713.747 801L737.647 773C737.947 770.1 734.047 772.6 731.647 772.1C716.547 769.1 733.947 745.3 741.947 746.7C745.147 747.3 746.947 750.3 747.447 753.3C749.447 765.1 738.947 779.8 731.247 788.1ZM741.647 762.6C741.647 758.6 740.847 752.7 735.647 755.1C727.147 759.1 734.747 764.7 741.647 762.6Z" fill="#049F99"/>
<path d="M281.447 890.4C275.647 905.4 262.547 915.6 246.547 917.3L270.947 900.3L281.447 890.4Z" fill="#049F99"/>
</svg>
